<svg width="1455" height="601" viewBox="0 0 1455 601" fill="none" xmlns="http://www.w3.org/2000/svg">
<g filter="url(#filter0_i_150_204)">
<path d="M91.8673 410.941H35.1128V239.549C35.1128 239.549 3.97704 241.053 0 209.105C0 196.326 0 191.064 0 191.064H35.1128L35.4886 161.746C35.4886 161.746 35.1128 98.0419 125.695 94C145.616 95.5944 172.302 101.232 186.585 110.253C178.316 131.301 168.167 154.229 168.167 154.229C168.167 154.229 89.989 118.146 91.4915 191.815C129.453 191.815 159.898 191.815 159.898 191.815V238.798H91.4915L91.8673 410.941Z" fill="white"/>
</g>
<g filter="url(#filter1_i_150_204)">
<path d="M279.215 191.064H340.858L395.732 333.892L444.497 210.352C449.093 198.713 460.334 191.064 472.848 191.064H513.375L418.285 410.941H374.417L279.215 191.064Z" fill="white"/>
</g>
<g filter="url(#filter2_i_150_204)">
<path d="M558.474 279.664C573.508 231.929 612.222 235.311 612.222 235.311C660.708 234.561 665.972 279.664 665.972 279.664H558.474ZM615.98 190.96C615.98 190.96 494.201 187.202 505.48 319.505C505.48 319.505 515.252 412.342 614.854 410.839C614.854 410.839 669.354 414.224 709.947 381.898L701.747 368.777C694.751 357.585 681.016 352.606 668.489 356.756C654.067 361.533 634.534 366.55 617.859 365.736C617.859 365.736 569.753 370.623 559.227 319.881L716.711 319.505C716.711 319.505 736.633 195.095 615.98 190.96Z" fill="white"/>
</g>
<g filter="url(#filter3_i_150_204)">
<path d="M259.126 410.938H201.996V189.275H256.212C257.822 189.275 259.126 190.581 259.126 192.19V410.938Z" fill="white"/>
</g>
<g filter="url(#filter4_i_150_204)">
<path d="M259.126 147.044C259.126 162.82 246.337 175.609 230.561 175.609C214.785 175.609 201.996 162.82 201.996 147.044C201.996 131.268 214.785 118.479 230.561 118.479C246.337 118.479 259.126 131.268 259.126 147.044Z" fill="white"/>
</g>
<path d="M1432.74 194.528H1437.5C1438.01 194.528 1438.45 194.37 1438.84 194.052C1439.24 193.735 1439.54 193.318 1439.77 192.803C1440 192.288 1440.11 191.722 1440.11 191.103C1440.11 190.468 1439.98 189.892 1439.71 189.378C1439.44 188.862 1439.1 188.455 1438.7 188.154C1438.29 187.855 1437.84 187.703 1437.36 187.703H1432.74V194.528ZM1429.98 203.439V185.154H1437.53C1438.31 185.154 1439.02 185.326 1439.68 185.669C1440.32 186.013 1440.89 186.468 1441.37 187.034C1441.85 187.6 1442.23 188.241 1442.49 188.953C1442.76 189.666 1442.89 190.383 1442.89 191.103C1442.89 191.928 1442.76 192.704 1442.48 193.434C1442.2 194.164 1441.81 194.795 1441.3 195.327C1440.78 195.859 1440.19 196.245 1439.5 196.485L1443.58 203.439H1440.5L1436.75 197.078H1432.74V203.439H1429.98Z" fill="white"/>
<path d="M1436.01 176.857C1426.55 176.857 1418.86 184.553 1418.86 194.012C1418.86 203.471 1426.55 211.167 1436.01 211.167C1445.47 211.167 1453.17 203.471 1453.17 194.012C1453.17 184.553 1445.47 176.857 1436.01 176.857ZM1436.01 212.025C1426.08 212.025 1418 203.944 1418 194.012C1418 184.08 1426.08 176 1436.01 176C1445.94 176 1454.03 184.08 1454.03 194.012C1454.03 203.944 1445.94 212.025 1436.01 212.025Z" fill="white"/>
<path d="M909.124 224.512V218.748C909.124 208.807 917.183 200.748 927.124 200.748H958.115V351.01C958.115 378.067 936.181 400.001 909.124 400.001V376.968C891.941 395.614 870.736 404.754 845.51 404.754C816.993 404.754 793.229 394.883 774.583 374.774C755.937 354.666 746.797 329.44 746.797 299.46C746.797 269.481 756.303 244.62 774.948 225.243C793.594 205.501 817.358 195.629 845.51 195.629C870.371 195.629 891.575 205.135 909.124 224.512ZM909.856 300.192C909.856 284.471 904.372 270.943 893.769 259.61C883.167 248.276 870.005 242.792 853.918 242.792C837.466 242.792 824.305 248.276 813.702 259.61C803.465 270.943 798.347 284.471 798.347 300.192C798.347 316.278 803.465 329.805 814.068 341.139C824.67 352.473 837.832 357.957 853.918 357.957C870.005 357.957 883.167 352.473 893.769 341.139C904.372 329.805 909.856 316.278 909.856 300.192ZM1104.27 195.629C1132.43 195.629 1155.82 205.866 1174.47 225.974C1193.12 246.083 1202.26 270.943 1202.26 300.192C1202.26 329.44 1192.75 354.301 1174.1 374.409C1155.46 394.517 1132.06 404.754 1103.91 404.754C1079.41 404.754 1058.57 395.614 1041.39 376.968V441.896C1041.39 463.987 1023.48 481.896 1001.39 481.896H989.842V200.748H1023.03C1032.97 200.748 1041.03 208.807 1041.03 218.748V225.243C1058.21 205.501 1079.05 195.629 1104.27 195.629ZM1095.13 357.591C1111.59 357.591 1124.75 352.107 1134.99 341.139C1145.22 330.171 1150.34 316.644 1150.34 300.557C1150.34 284.471 1145.22 270.943 1134.99 259.975C1124.75 249.007 1111.59 243.523 1095.13 243.523C1079.05 243.523 1065.89 249.007 1055.65 259.975C1045.41 270.943 1040.29 284.471 1040.29 300.557C1040.29 316.644 1045.41 330.171 1055.65 341.139C1065.89 352.107 1079.05 357.591 1095.13 357.591ZM1338.5 195.629C1366.65 195.629 1390.05 205.866 1408.7 225.974C1427.34 246.083 1436.48 270.943 1436.48 300.192C1436.48 329.44 1426.98 354.301 1408.33 374.409C1389.69 394.517 1366.29 404.754 1338.14 404.754C1313.64 404.754 1292.8 395.614 1275.62 376.968V441.896C1275.62 463.987 1257.71 481.896 1235.62 481.896H1224.07V200.748H1257.25C1267.19 200.748 1275.25 208.807 1275.25 218.748V225.243C1292.44 205.501 1313.28 195.629 1338.5 195.629ZM1329.36 357.591C1345.82 357.591 1358.98 352.107 1369.21 341.139C1379.45 330.171 1384.57 316.644 1384.57 300.557C1384.57 284.471 1379.45 270.943 1369.21 259.975C1358.98 249.007 1345.82 243.523 1329.36 243.523C1313.28 243.523 1300.11 249.007 1289.88 259.975C1279.64 270.943 1274.52 284.471 1274.52 300.557C1274.52 316.644 1279.64 330.171 1289.88 341.139C1300.11 352.107 1313.28 357.591 1329.36 357.591Z" fill="white"/>
<defs>
<filter id="filter0_i_150_204" x="0" y="94" width="186.586" height="319.356" filterUnits="userSpaceOnUse" color-interpolation-filters="sRGB">
<feFlood flood-opacity="0" result="BackgroundImageFix"/>
<feBlend mode="normal" in="SourceGraphic" in2="BackgroundImageFix" result="shape"/>
<feColorMatrix in="SourceAlpha" type="matrix" values="0 0 0 0 0 0 0 0 0 0 0 0 0 0 0 0 0 0 127 0" result="hardAlpha"/>
<feOffset dy="2.41488"/>
<feGaussianBlur stdDeviation="2.50543"/>
<feComposite in2="hardAlpha" operator="arithmetic" k2="-1" k3="1"/>
<feColorMatrix type="matrix" values="0 0 0 0 0 0 0 0 0 0 0 0 0 0 0 0 0 0 0.25 0"/>
<feBlend mode="normal" in2="shape" result="effect1_innerShadow_150_204"/>
</filter>
<filter id="filter1_i_150_204" x="279.215" y="191.064" width="234.16" height="222.292" filterUnits="userSpaceOnUse" color-interpolation-filters="sRGB">
<feFlood flood-opacity="0" result="BackgroundImageFix"/>
<feBlend mode="normal" in="SourceGraphic" in2="BackgroundImageFix" result="shape"/>
<feColorMatrix in="SourceAlpha" type="matrix" values="0 0 0 0 0 0 0 0 0 0 0 0 0 0 0 0 0 0 127 0" result="hardAlpha"/>
<feOffset dy="2.41488"/>
<feGaussianBlur stdDeviation="1.20744"/>
<feComposite in2="hardAlpha" operator="arithmetic" k2="-1" k3="1"/>
<feColorMatrix type="matrix" values="0 0 0 0 0 0 0 0 0 0 0 0 0 0 0 0 0 0 0.25 0"/>
<feBlend mode="normal" in2="shape" result="effect1_innerShadow_150_204"/>
</filter>
<filter id="filter2_i_150_204" x="504.742" y="190.949" width="213.195" height="222.407" filterUnits="userSpaceOnUse" color-interpolation-filters="sRGB">
<feFlood flood-opacity="0" result="BackgroundImageFix"/>
<feBlend mode="normal" in="SourceGraphic" in2="BackgroundImageFix" result="shape"/>
<feColorMatrix in="SourceAlpha" type="matrix" values="0 0 0 0 0 0 0 0 0 0 0 0 0 0 0 0 0 0 127 0" result="hardAlpha"/>
<feOffset dy="2.41488"/>
<feGaussianBlur stdDeviation="1.20744"/>
<feComposite in2="hardAlpha" operator="arithmetic" k2="-1" k3="1"/>
<feColorMatrix type="matrix" values="0 0 0 0 0 0 0 0 0 0 0 0 0 0 0 0 0 0 0.25 0"/>
<feBlend mode="normal" in2="shape" result="effect1_innerShadow_150_204"/>
</filter>
<filter id="filter3_i_150_204" x="201.996" y="189.275" width="57.1289" height="224.077" filterUnits="userSpaceOnUse" color-interpolation-filters="sRGB">
<feFlood flood-opacity="0" result="BackgroundImageFix"/>
<feBlend mode="normal" in="SourceGraphic" in2="BackgroundImageFix" result="shape"/>
<feColorMatrix in="SourceAlpha" type="matrix" values="0 0 0 0 0 0 0 0 0 0 0 0 0 0 0 0 0 0 127 0" result="hardAlpha"/>
<feOffset dy="2.41488"/>
<feGaussianBlur stdDeviation="1.20744"/>
<feComposite in2="hardAlpha" operator="arithmetic" k2="-1" k3="1"/>
<feColorMatrix type="matrix" values="0 0 0 0 0 0 0 0 0 0 0 0 0 0 0 0 0 0 0.25 0"/>
<feBlend mode="normal" in2="shape" result="effect1_innerShadow_150_204"/>
</filter>
<filter id="filter4_i_150_204" x="201.996" y="118.479" width="57.1289" height="59.5457" filterUnits="userSpaceOnUse" color-interpolation-filters="sRGB">
<feFlood flood-opacity="0" result="BackgroundImageFix"/>
<feBlend mode="normal" in="SourceGraphic" in2="BackgroundImageFix" result="shape"/>
<feColorMatrix in="SourceAlpha" type="matrix" values="0 0 0 0 0 0 0 0 0 0 0 0 0 0 0 0 0 0 127 0" result="hardAlpha"/>
<feOffset dy="2.41488"/>
<feGaussianBlur stdDeviation="1.20744"/>
<feComposite in2="hardAlpha" operator="arithmetic" k2="-1" k3="1"/>
<feColorMatrix type="matrix" values="0 0 0 0 0 0 0 0 0 0 0 0 0 0 0 0 0 0 0.25 0"/>
<feBlend mode="normal" in2="shape" result="effect1_innerShadow_150_204"/>
</filter>
</defs>
</svg>
